# xmcd
#
# Track frame offsets:
#	150
#	19990
#	36467
#	51912
#	71230
#	86792
#	99402
#	112990
#	130100
#	147730
#	160432
#	177477
#	197850
#	210957
#	223655
#
# Disc length: 3208 seconds
#
# Revision: 1
# Processed by: cddbd v1.4PL0 Copyright (c) Steve Scherf et al.
# Submitted via: EasyCDDAExtractor 6.2.0.3
#
DISCID=eb0c860f
DTITLE=Grant and Forsyth - The Best Of Grant and Forsyth
DYEAR=1900
DGENRE=Country
TTITLE0=Do That To Me One More Time
TTITLE1=Torn Between Two Lovers
TTITLE2=He's Out My Life
TTITLE3=It Ain't Easy
TTITLE4=Always On My Mind
TTITLE5=If I Were A Carpenter
TTITLE6=Turning Over New Leaves
TTITLE7=(Don't Stay) For The Sake Of The Children
TTITLE8=Nobody Leaves Me
TTITLE9=Make Believe
TTITLE10=Stay
TTITLE11=House For Sale
TTITLE12=Deep Purple
TTITLE13=I Believe
TTITLE14=I Am, I Said
EXTD=
EXTT0=
EXTT1=
EXTT2=
EXTT3=
EXTT4=
EXTT5=
EXTT6=
EXTT7=
EXTT8=
EXTT9=
EXTT10=
EXTT11=
EXTT12=
EXTT13=
EXTT14=
PLAYORDER=
